<?xml version="1.0" standalone="no"?>
<!DOCTYPE svg PUBLIC "-//W3C//DTD SVG 20010904//EN"
 "http://www.w3.org/TR/2001/REC-SVG-20010904/DTD/svg10.dtd">
<svg version="1.0" xmlns="http://www.w3.org/2000/svg"
 width="138" height="27" viewBox="0 0 264.000000 248.000000"
 preserveAspectRatio="xMidYMid meet">

<g transform="translate(0.000000,248.000000) scale(0.100000,-0.100000)"
fill="#000000" stroke="none">
<path d="M103 2412 l-53 -3 0 -275 c0 -254 1 -274 18 -274 9 0 195 0 413 0
218 0 403 -2 410 -5 12 -4 14 -94 11 -556 l-2 -551 83 -131 c46 -73 96 -153
111 -179 16 -27 32 -51 37 -54 5 -3 8 337 7 848 l-3 853 -425 5 -425 5 0 40 0
40 470 0 470 0 5 -980 5 -980 50 -83 c27 -45 53 -82 56 -82 4 0 32 41 63 91
l56 91 0 974 0 974 448 -2 447 -3 3 -42 3 -43 -405 0 -406 0 0 -855 c0 -470 2
-855 4 -855 2 0 32 46 65 102 34 57 84 138 111 180 l50 77 2 558 3 558 403 3
402 2 0 275 0 275 -77 0 c-43 0 -591 1 -1218 3 -627 1 -1164 1 -1192 -1z"/>
</g>
</svg>
